<?xml version="1.0" encoding="UTF-8" standalone="no"?>
<!-- Created with Inkscape (http://www.inkscape.org/) -->

<svg
   xmlns:dc="http://purl.org/dc/elements/1.1/"
   xmlns:cc="http://creativecommons.org/ns#"
   xmlns:rdf="http://www.w3.org/1999/02/22-rdf-syntax-ns#"
   xmlns:svg="http://www.w3.org/2000/svg"
   xmlns="http://www.w3.org/2000/svg"
   xmlns:sodipodi="http://sodipodi.sourceforge.net/DTD/sodipodi-0.dtd"
   xmlns:inkscape="http://www.inkscape.org/namespaces/inkscape"
   width="500"
   height="500"
   viewBox="0 0 132.29166 132.29167"
   version="1.1"
   id="svg8"
   sodipodi:docname="logo_square.svg"
   inkscape:version="0.92.4 (unknown)"
   inkscape:export-filename="/tmp/logo_square_350.png"
   inkscape:export-xdpi="67.199997"
   inkscape:export-ydpi="67.199997">
  <defs
     id="defs2" />
  <sodipodi:namedview
     id="base"
     pagecolor="#ffffff"
     bordercolor="#666666"
     borderopacity="1.0"
     inkscape:pageopacity="0.0"
     inkscape:pageshadow="2"
     inkscape:zoom="1.4142136"
     inkscape:cx="-45.903309"
     inkscape:cy="215.61034"
     inkscape:document-units="mm"
     inkscape:current-layer="layer5"
     showgrid="false"
     showguides="true"
     inkscape:guide-bbox="true"
     inkscape:object-paths="true"
     inkscape:snap-midpoints="true"
     inkscape:snap-smooth-nodes="true"
     inkscape:snap-global="false"
     inkscape:window-width="1920"
     inkscape:window-height="1059"
     inkscape:window-x="0"
     inkscape:window-y="0"
     inkscape:window-maximized="1"
     units="px" />
  <metadata
     id="metadata5">
    <rdf:RDF>
      <cc:Work
         rdf:about="">
        <dc:format>image/svg+xml</dc:format>
        <dc:type
           rdf:resource="http://purl.org/dc/dcmitype/StillImage" />
        <dc:title />
      </cc:Work>
    </rdf:RDF>
  </metadata>
  <g
     inkscape:groupmode="layer"
     id="layer5"
     inkscape:label="Logo"
     style="display:inline"
     transform="translate(0,-164.70832)">
    <path
       inkscape:connector-curvature="0"
       style="color:#000000;clip-rule:nonzero;display:inline;overflow:visible;visibility:visible;opacity:1;isolation:auto;mix-blend-mode:normal;color-interpolation:sRGB;color-interpolation-filters:linearRGB;solid-color:#000000;solid-opacity:1;vector-effect:none;fill:#ffffff;fill-opacity:1;fill-rule:nonzero;stroke:none;stroke-width:1.99999988;stroke-linecap:round;stroke-linejoin:miter;stroke-miterlimit:4;stroke-dasharray:none;stroke-opacity:1;marker:none;color-rendering:auto;image-rendering:auto;shape-rendering:auto;text-rendering:auto;enable-background:accumulate"
       d="m 13.524822,167.3548 c -6.0264556,0 -10.8789893,4.85126 -10.8789893,10.87772 v 105.24329 c 0,6.02646 4.8525337,10.87772 10.8789893,10.87772 H 118.76812 c 6.02645,0 10.87771,-4.85126 10.87771,-10.87772 V 178.23252 c 1e-5,-6.02646 -4.85126,-10.87772 -10.87771,-10.87772 z"
       id="rect1255-2"
       sodipodi:nodetypes="sssssscss" />
    <path
       inkscape:connector-curvature="0"
       style="color:#000000;clip-rule:nonzero;display:inline;overflow:visible;visibility:visible;opacity:1;isolation:auto;mix-blend-mode:normal;color-interpolation:sRGB;color-interpolation-filters:linearRGB;solid-color:#000000;solid-opacity:1;vector-effect:none;fill:#000000;fill-opacity:1;fill-rule:nonzero;stroke:none;stroke-width:1.99999988;stroke-linecap:round;stroke-linejoin:miter;stroke-miterlimit:4;stroke-dasharray:none;stroke-opacity:1;marker:none;color-rendering:auto;image-rendering:auto;shape-rendering:auto;text-rendering:auto;enable-background:accumulate"
       d="m 13.524821,167.3548 c -6.0264546,0 -10.8789883,4.85126 -10.8789883,10.87772 v 105.24329 c 0,6.02646 4.8525337,10.87772 10.8789883,10.87772 H 118.76812 c 6.02645,0 10.87771,-4.85126 10.87771,-10.87772 V 178.23252 c 1e-5,-6.02646 -4.85126,-10.87772 -10.87771,-10.87772 z m 6.737509,8.13108 h 91.76701 c 5.25477,0 9.48542,4.23064 9.48542,9.48541 v 91.76702 c 0,5.25476 -4.23065,9.48415 -9.48542,9.48415 H 20.26233 c -5.254769,0 -9.485416,-4.22939 -9.485416,-9.48415 v -91.76702 c 0,-5.25477 4.230647,-9.48541 9.485416,-9.48541 z"
       id="rect1255" />
    <path
       inkscape:connector-curvature="0"
       style="color:#000000;clip-rule:nonzero;display:inline;overflow:visible;visibility:visible;opacity:1;isolation:auto;mix-blend-mode:normal;color-interpolation:sRGB;color-interpolation-filters:linearRGB;solid-color:#000000;solid-opacity:1;vector-effect:none;fill:#f36926;fill-opacity:1;fill-rule:nonzero;stroke:none;stroke-width:3.96874952;stroke-linecap:round;stroke-linejoin:miter;stroke-miterlimit:4;stroke-dasharray:none;stroke-opacity:1;marker:none;color-rendering:auto;image-rendering:auto;shape-rendering:auto;text-rendering:auto;enable-background:accumulate"
       d="m 70.42592,270.30205 a 6.3803185,6.3803185 0 0 1 -3.927576,1.36193 6.3803185,6.3803185 0 0 1 -3.927577,-1.3556 v 14.57873 l 7.855153,0.0152 z"
       id="path1156-0" />
    <path
       inkscape:connector-curvature="0"
       id="path1192"
       style="color:#000000;clip-rule:nonzero;display:inline;overflow:visible;visibility:visible;opacity:1;isolation:auto;mix-blend-mode:normal;color-interpolation:sRGB;color-interpolation-filters:linearRGB;solid-color:#000000;solid-opacity:1;vector-effect:none;fill:#000000;fill-opacity:1;fill-rule:nonzero;stroke:none;stroke-width:3.96874952;stroke-linecap:round;stroke-linejoin:miter;stroke-miterlimit:4;stroke-dasharray:none;stroke-opacity:1;marker:none;color-rendering:auto;image-rendering:auto;shape-rendering:auto;text-rendering:auto;enable-background:accumulate"
       d="m 62.570769,255.13855 v 6.01603 a 5.4390418,5.4390418 0 0 0 -1.511286,3.75417 5.4390418,5.4390418 0 0 0 5.438863,5.43887 5.4390418,5.4390418 0 0 0 5.438863,-5.43887 5.4390418,5.4390418 0 0 0 -1.511288,-3.75924 v -6.01476 a 16.35057,13.94781 0 0 1 -0.679701,0.14819 16.35057,13.94781 0 0 1 -1.616343,0.20893 16.35057,13.94781 0 0 1 -1.632795,0.0696 16.35057,13.94781 0 0 1 -1.155621,-0.0355 16.35057,13.94781 0 0 1 -1.622667,-0.16827 16.35057,13.94781 0 0 1 -1.148025,-0.21897 z m -14.82859,-87.78378 h 36.80763 c 5.00068,0 9.026496,4.02583 9.026496,9.02649 v 24.1381 c 0,5.00069 -4.025816,9.0265 -9.026496,9.0265 h -36.80763 c -5.00068,0 -9.026495,-4.02581 -9.026495,-9.0265 v -24.1381 c 0,-5.00066 4.025815,-9.02649 9.026495,-9.02649 z m 9.061899,73.36201 a 3.5617735,2.2148864 0 0 0 -3.561773,2.21501 h -0.0013 a 13.257073,11.308911 0 0 0 13.256038,11.30934 13.257073,11.308911 0 0 0 13.257302,-11.30934 3.5617735,2.2148864 0 0 0 -3.561782,-2.21501 3.5617735,2.2148864 0 0 0 -3.561773,2.21501 6.1330646,5.0734257 0 0 1 -6.133747,5.07307 6.1330646,5.0734257 0 0 1 -6.132484,-5.07307 3.5617735,2.2148864 0 0 0 -3.560518,-2.21501 z m 5.766691,-5.50968 v 5.87174 3.70226 a 4.5242775,3.7425962 0 0 0 0.120238,0.17341 4.5242775,3.7425962 0 0 0 0.263273,0.30377 4.5242775,3.7425962 0 0 0 0.298715,0.28099 4.5242775,3.7425962 0 0 0 0.330353,0.25569 4.5242775,3.7425962 0 0 0 0.360732,0.22534 4.5242775,3.7425962 0 0 0 0.384785,0.19619 4.5242775,3.7425962 0 0 0 0.407569,0.1619 4.5242775,3.7425962 0 0 0 0.425287,0.12908 4.5242775,3.7425962 0 0 0 0.437943,0.0923 4.5242775,3.7425962 0 0 0 0.446802,0.0556 4.5242775,3.7425962 0 0 0 0.45187,0.0196 4.5242775,3.7425962 0 0 0 0.32023,-0.01 4.5242775,3.7425962 0 0 0 0.449335,-0.0443 4.5242775,3.7425962 0 0 0 0.440478,-0.0823 4.5242775,3.7425962 0 0 0 0.429084,-0.11781 4.5242775,3.7425962 0 0 0 0.412624,-0.15309 4.5242775,3.7425962 0 0 0 0.392378,-0.18615 4.5242775,3.7425962 0 0 0 0.36833,-0.21775 4.5242775,3.7425962 0 0 0 0.33922,-0.24682 4.5242775,3.7425962 0 0 0 0.308835,-0.27339 4.5242775,3.7425962 0 0 0 0.273404,-0.29745 4.5242775,3.7425962 0 0 0 0.193645,-0.26073 v -3.70229 -5.86415 a 18.811916,15.561691 0 0 1 -0.191123,0.0404 18.811916,15.561691 0 0 1 -1.859364,0.23293 18.811916,15.561691 0 0 1 -1.878345,0.0771 18.811916,15.561691 0 0 1 -1.330291,-0.0392 18.811916,15.561691 0 0 1 -1.86696,-0.18737 18.811916,15.561691 0 0 1 -0.729062,-0.13545 z m 2.198581,-24.14267 c -1.218111,0 -2.198581,0.98173 -2.198581,2.19986 v 6.20588 3.70229 a 4.5242775,3.7425962 0 0 0 0.120238,0.17341 4.5242775,3.7425962 0 0 0 0.263273,0.30377 4.5242775,3.7425962 0 0 0 0.298715,0.28099 4.5242775,3.7425962 0 0 0 0.330353,0.25568 4.5242775,3.7425962 0 0 0 0.360732,0.22534 4.5242775,3.7425962 0 0 0 0.384785,0.1962 4.5242775,3.7425962 0 0 0 0.407569,0.16337 4.5242775,3.7425962 0 0 0 0.425287,0.12785 4.5242775,3.7425962 0 0 0 0.437943,0.0923 4.5242775,3.7425962 0 0 0 0.446802,0.0556 4.5242775,3.7425962 0 0 0 0.45187,0.0196 4.5242775,3.7425962 0 0 0 0.32023,-0.01 4.5242775,3.7425962 0 0 0 0.449335,-0.0456 4.5242775,3.7425962 0 0 0 0.440478,-0.0823 4.5242775,3.7425962 0 0 0 0.429084,-0.11782 4.5242775,3.7425962 0 0 0 0.412624,-0.15308 4.5242775,3.7425962 0 0 0 0.392378,-0.18615 4.5242775,3.7425962 0 0 0 0.36833,-0.21775 4.5242775,3.7425962 0 0 0 0.33922,-0.24682 4.5242775,3.7425962 0 0 0 0.308835,-0.2734 4.5242775,3.7425962 0 0 0 0.273404,-0.29744 4.5242775,3.7425962 0 0 0 0.193645,-0.26074 v -3.70228 -6.20968 c 0,-1.21813 -0.980471,-2.19986 -2.198582,-2.19986 z m -9.152529,7.30579 a 4.7484064,2.9527932 0 0 0 -4.749034,2.95296 4.7484064,2.9527932 0 0 0 0.01274,0.20893 15.629422,12.929052 0 0 0 15.617898,12.72062 15.629422,12.929052 0 0 0 15.628021,-12.89783 4.7484064,2.9527932 0 0 0 0.0027,-0.0316 4.7484064,2.9527932 0 0 0 -4.749039,-2.95296 4.7484064,2.9527932 0 0 0 -4.747768,2.95296 h -0.0013 a 6.1330646,5.0734257 0 0 1 -6.132481,5.07306 6.1330646,5.0734257 0 0 1 -6.132484,-5.07306 h -0.0013 a 4.7484064,2.9527932 0 0 0 -4.747775,-2.95296 z" />
  </g>
</svg>
